<?xml version="1.0" encoding="UTF-8" standalone="no"?>
<!DOCTYPE svg PUBLIC "-//W3C//DTD SVG 1.1//EN"
 "http://www.w3.org/Graphics/SVG/1.1/DTD/svg11.dtd">
<!-- Generated by graphviz version 2.50.0 (0)
 -->
<!-- Title: G Pages: 1 -->
<svg width="723pt" height="1512pt"
 viewBox="0.00 0.00 542.50 1134.00" xmlns="http://www.w3.org/2000/svg" xmlns:xlink="http://www.w3.org/1999/xlink">
<g id="graph0" class="graph" transform="scale(1.33 1.33) rotate(0) translate(4 1130)">
<title>G</title>
<polygon fill="white" stroke="transparent" points="-4,4 -4,-1130 538.5,-1130 538.5,4 -4,4"/>
<!-- 11060500560 -->
<g id="node1" class="node">
<title>11060500560</title>
<polygon fill="none" stroke="black" points="26,-1079.5 26,-1125.5 296,-1125.5 296,-1079.5 26,-1079.5"/>
<text text-anchor="middle" x="73.5" y="-1110.3" font-family="Times,serif" font-size="14.00">left_eye_input</text>
<polyline fill="none" stroke="black" points="26,-1102.5 121,-1102.5 "/>
<text text-anchor="middle" x="73.5" y="-1087.3" font-family="Times,serif" font-size="14.00">InputLayer</text>
<polyline fill="none" stroke="black" points="121,-1079.5 121,-1125.5 "/>
<text text-anchor="middle" x="148.5" y="-1110.3" font-family="Times,serif" font-size="14.00">input:</text>
<polyline fill="none" stroke="black" points="121,-1102.5 176,-1102.5 "/>
<text text-anchor="middle" x="148.5" y="-1087.3" font-family="Times,serif" font-size="14.00">output:</text>
<polyline fill="none" stroke="black" points="176,-1079.5 176,-1125.5 "/>
<text text-anchor="middle" x="236" y="-1110.3" font-family="Times,serif" font-size="14.00">[(None, 40, 90, 1)]</text>
<polyline fill="none" stroke="black" points="176,-1102.5 296,-1102.5 "/>
<text text-anchor="middle" x="236" y="-1087.3" font-family="Times,serif" font-size="14.00">[(None, 40, 90, 1)]</text>
</g>
<!-- 11060534928 -->
<g id="node2" class="node">
<title>11060534928</title>
<polygon fill="none" stroke="black" points="36,-996.5 36,-1042.5 286,-1042.5 286,-996.5 36,-996.5"/>
<text text-anchor="middle" x="74.5" y="-1027.3" font-family="Times,serif" font-size="14.00">conv2d_16</text>
<polyline fill="none" stroke="black" points="36,-1019.5 113,-1019.5 "/>
<text text-anchor="middle" x="74.5" y="-1004.3" font-family="Times,serif" font-size="14.00">Conv2D</text>
<polyline fill="none" stroke="black" points="113,-996.5 113,-1042.5 "/>
<text text-anchor="middle" x="140.5" y="-1027.3" font-family="Times,serif" font-size="14.00">input:</text>
<polyline fill="none" stroke="black" points="113,-1019.5 168,-1019.5 "/>
<text text-anchor="middle" x="140.5" y="-1004.3" font-family="Times,serif" font-size="14.00">output:</text>
<polyline fill="none" stroke="black" points="168,-996.5 168,-1042.5 "/>
<text text-anchor="middle" x="227" y="-1027.3" font-family="Times,serif" font-size="14.00">(None, 40, 90, 1)</text>
<polyline fill="none" stroke="black" points="168,-1019.5 286,-1019.5 "/>
<text text-anchor="middle" x="227" y="-1004.3" font-family="Times,serif" font-size="14.00">(None, 40, 90, 32)</text>
</g>
<!-- 11060500560&#45;&gt;11060534928 -->
<g id="edge1" class="edge">
<title>11060500560&#45;&gt;11060534928</title>
<path fill="none" stroke="black" d="M161,-1079.37C161,-1071.15 161,-1061.66 161,-1052.73"/>
<polygon fill="black" stroke="black" points="164.5,-1052.61 161,-1042.61 157.5,-1052.61 164.5,-1052.61"/>
</g>
<!-- 11061168464 -->
<g id="node3" class="node">
<title>11061168464</title>
<polygon fill="none" stroke="black" points="0,-913.5 0,-959.5 322,-959.5 322,-913.5 0,-913.5"/>
<text text-anchor="middle" x="74.5" y="-944.3" font-family="Times,serif" font-size="14.00">batch_normalization_14</text>
<polyline fill="none" stroke="black" points="0,-936.5 149,-936.5 "/>
<text text-anchor="middle" x="74.5" y="-921.3" font-family="Times,serif" font-size="14.00">BatchNormalization</text>
<polyline fill="none" stroke="black" points="149,-913.5 149,-959.5 "/>
<text text-anchor="middle" x="176.5" y="-944.3" font-family="Times,serif" font-size="14.00">input:</text>
<polyline fill="none" stroke="black" points="149,-936.5 204,-936.5 "/>
<text text-anchor="middle" x="176.5" y="-921.3" font-family="Times,serif" font-size="14.00">output:</text>
<polyline fill="none" stroke="black" points="204,-913.5 204,-959.5 "/>
<text text-anchor="middle" x="263" y="-944.3" font-family="Times,serif" font-size="14.00">(None, 40, 90, 32)</text>
<polyline fill="none" stroke="black" points="204,-936.5 322,-936.5 "/>
<text text-anchor="middle" x="263" y="-921.3" font-family="Times,serif" font-size="14.00">(None, 40, 90, 32)</text>
</g>
<!-- 11060534928&#45;&gt;11061168464 -->
<g id="edge2" class="edge">
<title>11060534928&#45;&gt;11061168464</title>
<path fill="none" stroke="black" d="M161,-996.37C161,-988.15 161,-978.66 161,-969.73"/>
<polygon fill="black" stroke="black" points="164.5,-969.61 161,-959.61 157.5,-969.61 164.5,-969.61"/>
</g>
<!-- 11060582544 -->
<g id="node4" class="node">
<title>11060582544</title>
<polygon fill="none" stroke="black" points="13.5,-830.5 13.5,-876.5 308.5,-876.5 308.5,-830.5 13.5,-830.5"/>
<text text-anchor="middle" x="74.5" y="-861.3" font-family="Times,serif" font-size="14.00">max_pooling2d_16</text>
<polyline fill="none" stroke="black" points="13.5,-853.5 135.5,-853.5 "/>
<text text-anchor="middle" x="74.5" y="-838.3" font-family="Times,serif" font-size="14.00">MaxPooling2D</text>
<polyline fill="none" stroke="black" points="135.5,-830.5 135.5,-876.5 "/>
<text text-anchor="middle" x="163" y="-861.3" font-family="Times,serif" font-size="14.00">input:</text>
<polyline fill="none" stroke="black" points="135.5,-853.5 190.5,-853.5 "/>
<text text-anchor="middle" x="163" y="-838.3" font-family="Times,serif" font-size="14.00">output:</text>
<polyline fill="none" stroke="black" points="190.5,-830.5 190.5,-876.5 "/>
<text text-anchor="middle" x="249.5" y="-861.3" font-family="Times,serif" font-size="14.00">(None, 40, 90, 32)</text>
<polyline fill="none" stroke="black" points="190.5,-853.5 308.5,-853.5 "/>
<text text-anchor="middle" x="249.5" y="-838.3" font-family="Times,serif" font-size="14.00">(None, 20, 45, 32)</text>
</g>
<!-- 11061168464&#45;&gt;11060582544 -->
<g id="edge3" class="edge">
<title>11061168464&#45;&gt;11060582544</title>
<path fill="none" stroke="black" d="M161,-913.37C161,-905.15 161,-895.66 161,-886.73"/>
<polygon fill="black" stroke="black" points="164.5,-886.61 161,-876.61 157.5,-886.61 164.5,-886.61"/>
</g>
<!-- 11014314000 -->
<g id="node5" class="node">
<title>11014314000</title>
<polygon fill="none" stroke="black" points="36,-747.5 36,-793.5 286,-793.5 286,-747.5 36,-747.5"/>
<text text-anchor="middle" x="74.5" y="-778.3" font-family="Times,serif" font-size="14.00">conv2d_17</text>
<polyline fill="none" stroke="black" points="36,-770.5 113,-770.5 "/>
<text text-anchor="middle" x="74.5" y="-755.3" font-family="Times,serif" font-size="14.00">Conv2D</text>
<polyline fill="none" stroke="black" points="113,-747.5 113,-793.5 "/>
<text text-anchor="middle" x="140.5" y="-778.3" font-family="Times,serif" font-size="14.00">input:</text>
<polyline fill="none" stroke="black" points="113,-770.5 168,-770.5 "/>
<text text-anchor="middle" x="140.5" y="-755.3" font-family="Times,serif" font-size="14.00">output:</text>
<polyline fill="none" stroke="black" points="168,-747.5 168,-793.5 "/>
<text text-anchor="middle" x="227" y="-778.3" font-family="Times,serif" font-size="14.00">(None, 20, 45, 32)</text>
<polyline fill="none" stroke="black" points="168,-770.5 286,-770.5 "/>
<text text-anchor="middle" x="227" y="-755.3" font-family="Times,serif" font-size="14.00">(None, 20, 45, 64)</text>
</g>
<!-- 11060582544&#45;&gt;11014314000 -->
<g id="edge4" class="edge">
<title>11060582544&#45;&gt;11014314000</title>
<path fill="none" stroke="black" d="M161,-830.37C161,-822.15 161,-812.66 161,-803.73"/>
<polygon fill="black" stroke="black" points="164.5,-803.61 161,-793.61 157.5,-803.61 164.5,-803.61"/>
</g>
<!-- 11014317392 -->
<g id="node6" class="node">
<title>11014317392</title>
<polygon fill="none" stroke="black" points="0,-664.5 0,-710.5 322,-710.5 322,-664.5 0,-664.5"/>
<text text-anchor="middle" x="74.5" y="-695.3" font-family="Times,serif" font-size="14.00">batch_normalization_15</text>
<polyline fill="none" stroke="black" points="0,-687.5 149,-687.5 "/>
<text text-anchor="middle" x="74.5" y="-672.3" font-family="Times,serif" font-size="14.00">BatchNormalization</text>
<polyline fill="none" stroke="black" points="149,-664.5 149,-710.5 "/>
<text text-anchor="middle" x="176.5" y="-695.3" font-family="Times,serif" font-size="14.00">input:</text>
<polyline fill="none" stroke="black" points="149,-687.5 204,-687.5 "/>
<text text-anchor="middle" x="176.5" y="-672.3" font-family="Times,serif" font-size="14.00">output:</text>
<polyline fill="none" stroke="black" points="204,-664.5 204,-710.5 "/>
<text text-anchor="middle" x="263" y="-695.3" font-family="Times,serif" font-size="14.00">(None, 20, 45, 64)</text>
<polyline fill="none" stroke="black" points="204,-687.5 322,-687.5 "/>
<text text-anchor="middle" x="263" y="-672.3" font-family="Times,serif" font-size="14.00">(None, 20, 45, 64)</text>
</g>
<!-- 11014314000&#45;&gt;11014317392 -->
<g id="edge5" class="edge">
<title>11014314000&#45;&gt;11014317392</title>
<path fill="none" stroke="black" d="M161,-747.37C161,-739.15 161,-729.66 161,-720.73"/>
<polygon fill="black" stroke="black" points="164.5,-720.61 161,-710.61 157.5,-720.61 164.5,-720.61"/>
</g>
<!-- 11013690576 -->
<g id="node7" class="node">
<title>11013690576</title>
<polygon fill="none" stroke="black" points="13.5,-581.5 13.5,-627.5 308.5,-627.5 308.5,-581.5 13.5,-581.5"/>
<text text-anchor="middle" x="74.5" y="-612.3" font-family="Times,serif" font-size="14.00">max_pooling2d_17</text>
<polyline fill="none" stroke="black" points="13.5,-604.5 135.5,-604.5 "/>
<text text-anchor="middle" x="74.5" y="-589.3" font-family="Times,serif" font-size="14.00">MaxPooling2D</text>
<polyline fill="none" stroke="black" points="135.5,-581.5 135.5,-627.5 "/>
<text text-anchor="middle" x="163" y="-612.3" font-family="Times,serif" font-size="14.00">input:</text>
<polyline fill="none" stroke="black" points="135.5,-604.5 190.5,-604.5 "/>
<text text-anchor="middle" x="163" y="-589.3" font-family="Times,serif" font-size="14.00">output:</text>
<polyline fill="none" stroke="black" points="190.5,-581.5 190.5,-627.5 "/>
<text text-anchor="middle" x="249.5" y="-612.3" font-family="Times,serif" font-size="14.00">(None, 20, 45, 64)</text>
<polyline fill="none" stroke="black" points="190.5,-604.5 308.5,-604.5 "/>
<text text-anchor="middle" x="249.5" y="-589.3" font-family="Times,serif" font-size="14.00">(None, 10, 22, 64)</text>
</g>
<!-- 11014317392&#45;&gt;11013690576 -->
<g id="edge6" class="edge">
<title>11014317392&#45;&gt;11013690576</title>
<path fill="none" stroke="black" d="M161,-664.37C161,-656.15 161,-646.66 161,-637.73"/>
<polygon fill="black" stroke="black" points="164.5,-637.61 161,-627.61 157.5,-637.61 164.5,-637.61"/>
</g>
<!-- 11013687184 -->
<g id="node8" class="node">
<title>11013687184</title>
<polygon fill="none" stroke="black" points="39,-498.5 39,-544.5 283,-544.5 283,-498.5 39,-498.5"/>
<text text-anchor="middle" x="74.5" y="-529.3" font-family="Times,serif" font-size="14.00">flatten_12</text>
<polyline fill="none" stroke="black" points="39,-521.5 110,-521.5 "/>
<text text-anchor="middle" x="74.5" y="-506.3" font-family="Times,serif" font-size="14.00">Flatten</text>
<polyline fill="none" stroke="black" points="110,-498.5 110,-544.5 "/>
<text text-anchor="middle" x="137.5" y="-529.3" font-family="Times,serif" font-size="14.00">input:</text>
<polyline fill="none" stroke="black" points="110,-521.5 165,-521.5 "/>
<text text-anchor="middle" x="137.5" y="-506.3" font-family="Times,serif" font-size="14.00">output:</text>
<polyline fill="none" stroke="black" points="165,-498.5 165,-544.5 "/>
<text text-anchor="middle" x="224" y="-529.3" font-family="Times,serif" font-size="14.00">(None, 10, 22, 64)</text>
<polyline fill="none" stroke="black" points="165,-521.5 283,-521.5 "/>
<text text-anchor="middle" x="224" y="-506.3" font-family="Times,serif" font-size="14.00">(None, 14080)</text>
</g>
<!-- 11013690576&#45;&gt;11013687184 -->
<g id="edge7" class="edge">
<title>11013690576&#45;&gt;11013687184</title>
<path fill="none" stroke="black" d="M161,-581.37C161,-573.15 161,-563.66 161,-554.73"/>
<polygon fill="black" stroke="black" points="164.5,-554.61 161,-544.61 157.5,-554.61 164.5,-554.61"/>
</g>
<!-- 11014319504 -->
<g id="node10" class="node">
<title>11014319504</title>
<polygon fill="none" stroke="black" points="66.5,-415.5 66.5,-461.5 285.5,-461.5 285.5,-415.5 66.5,-415.5"/>
<text text-anchor="middle" x="100.5" y="-446.3" font-family="Times,serif" font-size="14.00">dense_57</text>
<polyline fill="none" stroke="black" points="66.5,-438.5 134.5,-438.5 "/>
<text text-anchor="middle" x="100.5" y="-423.3" font-family="Times,serif" font-size="14.00">Dense</text>
<polyline fill="none" stroke="black" points="134.5,-415.5 134.5,-461.5 "/>
<text text-anchor="middle" x="162" y="-446.3" font-family="Times,serif" font-size="14.00">input:</text>
<polyline fill="none" stroke="black" points="134.5,-438.5 189.5,-438.5 "/>
<text text-anchor="middle" x="162" y="-423.3" font-family="Times,serif" font-size="14.00">output:</text>
<polyline fill="none" stroke="black" points="189.5,-415.5 189.5,-461.5 "/>
<text text-anchor="middle" x="237.5" y="-446.3" font-family="Times,serif" font-size="14.00">(None, 14080)</text>
<polyline fill="none" stroke="black" points="189.5,-438.5 285.5,-438.5 "/>
<text text-anchor="middle" x="237.5" y="-423.3" font-family="Times,serif" font-size="14.00">(None, 256)</text>
</g>
<!-- 11013687184&#45;&gt;11014319504 -->
<g id="edge8" class="edge">
<title>11013687184&#45;&gt;11014319504</title>
<path fill="none" stroke="black" d="M165.1,-498.37C166.62,-490.15 168.38,-480.66 170.03,-471.73"/>
<polygon fill="black" stroke="black" points="173.53,-472.08 171.91,-461.61 166.64,-470.8 173.53,-472.08"/>
</g>
<!-- 11060497936 -->
<g id="node9" class="node">
<title>11060497936</title>
<polygon fill="none" stroke="black" points="301.5,-498.5 301.5,-544.5 534.5,-544.5 534.5,-498.5 301.5,-498.5"/>
<text text-anchor="middle" x="348" y="-529.3" font-family="Times,serif" font-size="14.00">left_iris_input</text>
<polyline fill="none" stroke="black" points="301.5,-521.5 394.5,-521.5 "/>
<text text-anchor="middle" x="348" y="-506.3" font-family="Times,serif" font-size="14.00">InputLayer</text>
<polyline fill="none" stroke="black" points="394.5,-498.5 394.5,-544.5 "/>
<text text-anchor="middle" x="422" y="-529.3" font-family="Times,serif" font-size="14.00">input:</text>
<polyline fill="none" stroke="black" points="394.5,-521.5 449.5,-521.5 "/>
<text text-anchor="middle" x="422" y="-506.3" font-family="Times,serif" font-size="14.00">output:</text>
<polyline fill="none" stroke="black" points="449.5,-498.5 449.5,-544.5 "/>
<text text-anchor="middle" x="492" y="-529.3" font-family="Times,serif" font-size="14.00">[(None, 16)]</text>
<polyline fill="none" stroke="black" points="449.5,-521.5 534.5,-521.5 "/>
<text text-anchor="middle" x="492" y="-506.3" font-family="Times,serif" font-size="14.00">[(None, 16)]</text>
</g>
<!-- 11013559632 -->
<g id="node11" class="node">
<title>11013559632</title>
<polygon fill="none" stroke="black" points="310.5,-415.5 310.5,-461.5 509.5,-461.5 509.5,-415.5 310.5,-415.5"/>
<text text-anchor="middle" x="344.5" y="-446.3" font-family="Times,serif" font-size="14.00">dense_58</text>
<polyline fill="none" stroke="black" points="310.5,-438.5 378.5,-438.5 "/>
<text text-anchor="middle" x="344.5" y="-423.3" font-family="Times,serif" font-size="14.00">Dense</text>
<polyline fill="none" stroke="black" points="378.5,-415.5 378.5,-461.5 "/>
<text text-anchor="middle" x="406" y="-446.3" font-family="Times,serif" font-size="14.00">input:</text>
<polyline fill="none" stroke="black" points="378.5,-438.5 433.5,-438.5 "/>
<text text-anchor="middle" x="406" y="-423.3" font-family="Times,serif" font-size="14.00">output:</text>
<polyline fill="none" stroke="black" points="433.5,-415.5 433.5,-461.5 "/>
<text text-anchor="middle" x="471.5" y="-446.3" font-family="Times,serif" font-size="14.00">(None, 16)</text>
<polyline fill="none" stroke="black" points="433.5,-438.5 509.5,-438.5 "/>
<text text-anchor="middle" x="471.5" y="-423.3" font-family="Times,serif" font-size="14.00">(None, 64)</text>
</g>
<!-- 11060497936&#45;&gt;11013559632 -->
<g id="edge9" class="edge">
<title>11060497936&#45;&gt;11013559632</title>
<path fill="none" stroke="black" d="M415.81,-498.37C415,-490.15 414.06,-480.66 413.18,-471.73"/>
<polygon fill="black" stroke="black" points="416.65,-471.21 412.18,-461.61 409.68,-471.9 416.65,-471.21"/>
</g>
<!-- 11061397328 -->
<g id="node12" class="node">
<title>11061397328</title>
<polygon fill="none" stroke="black" points="67.5,-332.5 67.5,-378.5 284.5,-378.5 284.5,-332.5 67.5,-332.5"/>
<text text-anchor="middle" x="107" y="-363.3" font-family="Times,serif" font-size="14.00">dropout_21</text>
<polyline fill="none" stroke="black" points="67.5,-355.5 146.5,-355.5 "/>
<text text-anchor="middle" x="107" y="-340.3" font-family="Times,serif" font-size="14.00">Dropout</text>
<polyline fill="none" stroke="black" points="146.5,-332.5 146.5,-378.5 "/>
<text text-anchor="middle" x="174" y="-363.3" font-family="Times,serif" font-size="14.00">input:</text>
<polyline fill="none" stroke="black" points="146.5,-355.5 201.5,-355.5 "/>
<text text-anchor="middle" x="174" y="-340.3" font-family="Times,serif" font-size="14.00">output:</text>
<polyline fill="none" stroke="black" points="201.5,-332.5 201.5,-378.5 "/>
<text text-anchor="middle" x="243" y="-363.3" font-family="Times,serif" font-size="14.00">(None, 256)</text>
<polyline fill="none" stroke="black" points="201.5,-355.5 284.5,-355.5 "/>
<text text-anchor="middle" x="243" y="-340.3" font-family="Times,serif" font-size="14.00">(None, 256)</text>
</g>
<!-- 11014319504&#45;&gt;11061397328 -->
<g id="edge10" class="edge">
<title>11014319504&#45;&gt;11061397328</title>
<path fill="none" stroke="black" d="M176,-415.37C176,-407.15 176,-397.66 176,-388.73"/>
<polygon fill="black" stroke="black" points="179.5,-388.61 176,-378.61 172.5,-388.61 179.5,-388.61"/>
</g>
<!-- 11013557904 -->
<g id="node13" class="node">
<title>11013557904</title>
<polygon fill="none" stroke="black" points="306.5,-332.5 306.5,-378.5 505.5,-378.5 505.5,-332.5 306.5,-332.5"/>
<text text-anchor="middle" x="340.5" y="-363.3" font-family="Times,serif" font-size="14.00">dense_59</text>
<polyline fill="none" stroke="black" points="306.5,-355.5 374.5,-355.5 "/>
<text text-anchor="middle" x="340.5" y="-340.3" font-family="Times,serif" font-size="14.00">Dense</text>
<polyline fill="none" stroke="black" points="374.5,-332.5 374.5,-378.5 "/>
<text text-anchor="middle" x="402" y="-363.3" font-family="Times,serif" font-size="14.00">input:</text>
<polyline fill="none" stroke="black" points="374.5,-355.5 429.5,-355.5 "/>
<text text-anchor="middle" x="402" y="-340.3" font-family="Times,serif" font-size="14.00">output:</text>
<polyline fill="none" stroke="black" points="429.5,-332.5 429.5,-378.5 "/>
<text text-anchor="middle" x="467.5" y="-363.3" font-family="Times,serif" font-size="14.00">(None, 64)</text>
<polyline fill="none" stroke="black" points="429.5,-355.5 505.5,-355.5 "/>
<text text-anchor="middle" x="467.5" y="-340.3" font-family="Times,serif" font-size="14.00">(None, 32)</text>
</g>
<!-- 11013559632&#45;&gt;11013557904 -->
<g id="edge11" class="edge">
<title>11013559632&#45;&gt;11013557904</title>
<path fill="none" stroke="black" d="M408.91,-415.37C408.5,-407.15 408.03,-397.66 407.59,-388.73"/>
<polygon fill="black" stroke="black" points="411.08,-388.42 407.09,-378.61 404.09,-388.77 411.08,-388.42"/>
</g>
<!-- 11013569936 -->
<g id="node14" class="node">
<title>11013569936</title>
<polygon fill="none" stroke="black" points="132,-249.5 132,-295.5 446,-295.5 446,-249.5 132,-249.5"/>
<text text-anchor="middle" x="182.5" y="-280.3" font-family="Times,serif" font-size="14.00">concatenate_12</text>
<polyline fill="none" stroke="black" points="132,-272.5 233,-272.5 "/>
<text text-anchor="middle" x="182.5" y="-257.3" font-family="Times,serif" font-size="14.00">Concatenate</text>
<polyline fill="none" stroke="black" points="233,-249.5 233,-295.5 "/>
<text text-anchor="middle" x="260.5" y="-280.3" font-family="Times,serif" font-size="14.00">input:</text>
<polyline fill="none" stroke="black" points="233,-272.5 288,-272.5 "/>
<text text-anchor="middle" x="260.5" y="-257.3" font-family="Times,serif" font-size="14.00">output:</text>
<polyline fill="none" stroke="black" points="288,-249.5 288,-295.5 "/>
<text text-anchor="middle" x="367" y="-280.3" font-family="Times,serif" font-size="14.00">[(None, 256), (None, 32)]</text>
<polyline fill="none" stroke="black" points="288,-272.5 446,-272.5 "/>
<text text-anchor="middle" x="367" y="-257.3" font-family="Times,serif" font-size="14.00">(None, 288)</text>
</g>
<!-- 11061397328&#45;&gt;11013569936 -->
<g id="edge12" class="edge">
<title>11061397328&#45;&gt;11013569936</title>
<path fill="none" stroke="black" d="M206.88,-332.37C220.08,-322.9 235.65,-311.74 249.67,-301.69"/>
<polygon fill="black" stroke="black" points="252.07,-304.28 258.16,-295.61 247.99,-298.59 252.07,-304.28"/>
</g>
<!-- 11013557904&#45;&gt;11013569936 -->
<g id="edge13" class="edge">
<title>11013557904&#45;&gt;11013569936</title>
<path fill="none" stroke="black" d="M374.03,-332.37C360.23,-322.81 343.93,-311.53 329.31,-301.41"/>
<polygon fill="black" stroke="black" points="331.15,-298.42 320.93,-295.61 327.16,-304.18 331.15,-298.42"/>
</g>
<!-- 4304869136 -->
<g id="node15" class="node">
<title>4304869136</title>
<polygon fill="none" stroke="black" points="186,-166.5 186,-212.5 392,-212.5 392,-166.5 186,-166.5"/>
<text text-anchor="middle" x="220" y="-197.3" font-family="Times,serif" font-size="14.00">dense_60</text>
<polyline fill="none" stroke="black" points="186,-189.5 254,-189.5 "/>
<text text-anchor="middle" x="220" y="-174.3" font-family="Times,serif" font-size="14.00">Dense</text>
<polyline fill="none" stroke="black" points="254,-166.5 254,-212.5 "/>
<text text-anchor="middle" x="281.5" y="-197.3" font-family="Times,serif" font-size="14.00">input:</text>
<polyline fill="none" stroke="black" points="254,-189.5 309,-189.5 "/>
<text text-anchor="middle" x="281.5" y="-174.3" font-family="Times,serif" font-size="14.00">output:</text>
<polyline fill="none" stroke="black" points="309,-166.5 309,-212.5 "/>
<text text-anchor="middle" x="350.5" y="-197.3" font-family="Times,serif" font-size="14.00">(None, 288)</text>
<polyline fill="none" stroke="black" points="309,-189.5 392,-189.5 "/>
<text text-anchor="middle" x="350.5" y="-174.3" font-family="Times,serif" font-size="14.00">(None, 256)</text>
</g>
<!-- 11013569936&#45;&gt;4304869136 -->
<g id="edge14" class="edge">
<title>11013569936&#45;&gt;4304869136</title>
<path fill="none" stroke="black" d="M289,-249.37C289,-241.15 289,-231.66 289,-222.73"/>
<polygon fill="black" stroke="black" points="292.5,-222.61 289,-212.61 285.5,-222.61 292.5,-222.61"/>
</g>
<!-- 10895695824 -->
<g id="node16" class="node">
<title>10895695824</title>
<polygon fill="none" stroke="black" points="180.5,-83.5 180.5,-129.5 397.5,-129.5 397.5,-83.5 180.5,-83.5"/>
<text text-anchor="middle" x="220" y="-114.3" font-family="Times,serif" font-size="14.00">dropout_22</text>
<polyline fill="none" stroke="black" points="180.5,-106.5 259.5,-106.5 "/>
<text text-anchor="middle" x="220" y="-91.3" font-family="Times,serif" font-size="14.00">Dropout</text>
<polyline fill="none" stroke="black" points="259.5,-83.5 259.5,-129.5 "/>
<text text-anchor="middle" x="287" y="-114.3" font-family="Times,serif" font-size="14.00">input:</text>
<polyline fill="none" stroke="black" points="259.5,-106.5 314.5,-106.5 "/>
<text text-anchor="middle" x="287" y="-91.3" font-family="Times,serif" font-size="14.00">output:</text>
<polyline fill="none" stroke="black" points="314.5,-83.5 314.5,-129.5 "/>
<text text-anchor="middle" x="356" y="-114.3" font-family="Times,serif" font-size="14.00">(None, 256)</text>
<polyline fill="none" stroke="black" points="314.5,-106.5 397.5,-106.5 "/>
<text text-anchor="middle" x="356" y="-91.3" font-family="Times,serif" font-size="14.00">(None, 256)</text>
</g>
<!-- 4304869136&#45;&gt;10895695824 -->
<g id="edge15" class="edge">
<title>4304869136&#45;&gt;10895695824</title>
<path fill="none" stroke="black" d="M289,-166.37C289,-158.15 289,-148.66 289,-139.73"/>
<polygon fill="black" stroke="black" points="292.5,-139.61 289,-129.61 285.5,-139.61 292.5,-139.61"/>
</g>
<!-- 11059027664 -->
<g id="node17" class="node">
<title>11059027664</title>
<polygon fill="none" stroke="black" points="186,-0.5 186,-46.5 392,-46.5 392,-0.5 186,-0.5"/>
<text text-anchor="middle" x="220" y="-31.3" font-family="Times,serif" font-size="14.00">dense_61</text>
<polyline fill="none" stroke="black" points="186,-23.5 254,-23.5 "/>
<text text-anchor="middle" x="220" y="-8.3" font-family="Times,serif" font-size="14.00">Dense</text>
<polyline fill="none" stroke="black" points="254,-0.5 254,-46.5 "/>
<text text-anchor="middle" x="281.5" y="-31.3" font-family="Times,serif" font-size="14.00">input:</text>
<polyline fill="none" stroke="black" points="254,-23.5 309,-23.5 "/>
<text text-anchor="middle" x="281.5" y="-8.3" font-family="Times,serif" font-size="14.00">output:</text>
<polyline fill="none" stroke="black" points="309,-0.5 309,-46.5 "/>
<text text-anchor="middle" x="350.5" y="-31.3" font-family="Times,serif" font-size="14.00">(None, 256)</text>
<polyline fill="none" stroke="black" points="309,-23.5 392,-23.5 "/>
<text text-anchor="middle" x="350.5" y="-8.3" font-family="Times,serif" font-size="14.00">(None, 2)</text>
</g>
<!-- 10895695824&#45;&gt;11059027664 -->
<g id="edge16" class="edge">
<title>10895695824&#45;&gt;11059027664</title>
<path fill="none" stroke="black" d="M289,-83.37C289,-75.15 289,-65.66 289,-56.73"/>
<polygon fill="black" stroke="black" points="292.5,-56.61 289,-46.61 285.5,-56.61 292.5,-56.61"/>
</g>
</g>
</svg>
